<?xml version="1.0" encoding="UTF-8" standalone="no"?><!DOCTYPE svg PUBLIC "-//W3C//DTD SVG 1.1//EN" "http://www.w3.org/Graphics/SVG/1.1/DTD/svg11.dtd"><svg width="100%" height="100%" viewBox="0 0 167 167" version="1.1" xmlns="http://www.w3.org/2000/svg" xmlns:xlink="http://www.w3.org/1999/xlink" xml:space="preserve" xmlns:serif="http://www.serif.com/" style="fill-rule:evenodd;clip-rule:evenodd;stroke-linecap:round;stroke-linejoin:round;"><circle cx="54.479" cy="54.998" r="4.863" style="fill:#fff;"/><path d="M92.655,106.109c0.447,2.235 1.544,4.289 3.153,5.903c0.784,0.78 1.677,1.445 2.65,1.972c-4.965,6.799 -8.648,14.448 -10.868,22.569c-1.643,-1.436 -3.219,-2.955 -4.727,-4.555c-4.449,-4.734 -8.228,-10.055 -11.231,-15.815c-2.89,-5.585 -5.026,-11.529 -6.352,-17.676c8.632,4.525 17.991,7.123 27.375,7.602" style="fill:#61b2e4;fill-rule:nonzero;"/><path d="M132.123,82.752c1.597,1.505 3.117,3.077 4.56,4.718c-8.128,2.205 -15.785,5.876 -22.595,10.831c-0.526,-0.958 -1.181,-1.838 -1.954,-2.611c-1.609,-1.604 -3.656,-2.699 -5.884,-3.148c-0.486,-9.375 -3.093,-18.727 -7.62,-27.348l-0.014,-0.025c6.149,1.327 12.096,3.462 17.685,6.35c5.761,3.006 11.084,6.785 15.822,11.233" style="fill:#92d3f5;fill-rule:nonzero;"/><path d="M86.062,48.025c12.109,12.153 19.366,28.158 20.193,44.521c-3.787,-0.767 -7.717,0.415 -10.452,3.144c-2.741,2.745 -3.923,6.695 -3.139,10.495c-16.379,-0.835 -32.389,-8.109 -44.541,-20.231c-15.537,-15.563 -22.882,-37.192 -19.523,-57.5c4.048,-0.659 8.152,-0.901 12.25,-0.725c16.606,0.676 32.893,7.986 45.212,20.294l0,0.002Zm-23.724,-1.226c-4.235,-4.234 -11.203,-4.234 -15.438,-0c-2.048,2.045 -3.2,4.824 -3.2,7.72c-0,2.892 1.15,5.67 3.196,7.715l0.002,-0c2.028,1.924 4.72,2.998 7.515,2.998c5.99,-0 10.919,-4.929 10.919,-10.919c0,-2.794 -1.072,-5.484 -2.994,-7.512" style="fill:#ea5a47;fill-rule:nonzero;"/><path d="M106.009,89.553c0.077,0.991 0.13,1.981 0.158,2.97c-0.726,-0.141 -1.463,-0.212 -2.201,-0.212c-6.331,0 -11.54,5.209 -11.54,11.54c0,0.783 0.08,1.565 0.238,2.332c-16.377,-0.836 -32.384,-8.109 -44.537,-20.232c-3.448,-3.483 -6.531,-7.311 -9.199,-11.423c3.126,2.844 6.497,5.406 10.074,7.657c17.496,10.903 38.644,13.639 57.007,7.368" style="fill:#d22f27;fill-rule:nonzero;"/><path d="M111.021,112.387c-2.014,-1.014 -3.982,-2.124 -5.903,-3.329c-5.679,-3.565 -10.843,-7.892 -15.347,-12.859l-0.005,-0.007c-4.344,-4.825 -8.028,-10.205 -10.956,-16c-0.14,-0.279 -0.223,-0.584 -0.243,-0.896c7.868,-1.743 34.366,23.729 32.454,33.091" style="fill:#61b2e4;fill-rule:nonzero;"/><path d="M54.618,68.264c7.583,-0 13.752,-6.167 13.752,-13.75c0,-7.583 -6.169,-13.745 -13.752,-13.745c-7.583,-0 -13.752,6.166 -13.752,13.747c-0,7.581 6.169,13.748 13.752,13.748m0,-22.914c5.056,-0 9.167,4.111 9.167,9.166c-0,5.056 -4.111,9.167 -9.167,9.167c-5.056,-0 -9.167,-4.114 -9.167,-9.167c0,-5.053 4.111,-9.166 9.167,-9.166" style="fill-rule:nonzero;"/><path d="M132.123,82.752c1.597,1.505 3.117,3.077 4.56,4.718c-8.128,2.205 -15.785,5.876 -22.595,10.831c-0.526,-0.958 -1.181,-1.838 -1.954,-2.611c-1.609,-1.604 -3.656,-2.699 -5.884,-3.148c-0.486,-9.375 -3.093,-18.727 -7.62,-27.348l-0.014,-0.025c6.149,1.327 12.096,3.462 17.685,6.35c5.761,3.006 11.084,6.785 15.822,11.233m-39.468,23.357c0.447,2.235 1.544,4.289 3.153,5.903c0.784,0.78 1.677,1.445 2.65,1.972c-4.965,6.799 -8.648,14.448 -10.868,22.569c-1.643,-1.436 -3.219,-2.955 -4.727,-4.555c-4.449,-4.734 -8.228,-10.055 -11.231,-15.815c-2.89,-5.585 -5.026,-11.529 -6.352,-17.676c8.632,4.525 17.991,7.123 27.375,7.602" style="fill:none;fill-rule:nonzero;stroke:#000;stroke-width:4.51px;"/><path d="M92.986,100.336c-0.625,2.051 -0.579,3.916 -0.317,5.845c-16.38,-0.838 -32.391,-8.112 -44.544,-20.237c-15.532,-15.557 -22.88,-37.182 -19.525,-57.486c20.303,-3.324 41.916,4.033 57.46,19.563c12.111,12.155 19.371,28.157 20.195,44.523c-2.147,-0.425 -4.371,-0.234 -6.412,0.553" style="fill:none;fill-rule:nonzero;stroke:#000;stroke-width:4.51px;"/><path d="M80.852,79.157c5.615,2.838 10.83,6.406 15.509,10.612c4.814,4.361 9.008,9.362 12.463,14.863c1.164,1.854 2.239,3.762 3.222,5.718" style="fill:none;fill-rule:nonzero;stroke:#000;stroke-width:4.51px;"/></svg>