<?xml version="1.0" standalone="no"?>
<!DOCTYPE svg PUBLIC "-//W3C//DTD SVG 20010904//EN"
 "http://www.w3.org/TR/2001/REC-SVG-20010904/DTD/svg10.dtd">
<svg version="1.0" xmlns="http://www.w3.org/2000/svg"
 width="1920.000000pt" height="1080.000000pt" viewBox="0 0 1920.000000 1080.000000"
 preserveAspectRatio="xMidYMid meet">

<g transform="translate(0.000000,1080.000000) scale(0.100000,-0.100000)"
fill="#000000" stroke="none">
<path d="M8507 7073 c-4 -3 -7 -45 -7 -92 0 -90 22 -214 59 -339 26 -85 18
-84 147 -22 75 37 185 121 213 164 17 24 -5 47 -136 145 -127 95 -257 163
-276 144z m157 -102 c16 -25 -86 -100 -118 -88 -27 11 -18 34 26 66 41 30 81
40 92 22z"/>
<path d="M8953 6754 c-3 -8 -37 -42 -75 -74 -74 -62 -175 -120 -245 -141 -38
-11 -59 -29 -33 -29 23 0 131 47 192 83 63 38 198 153 198 170 0 14 -31 7 -37
-9z"/>
<path d="M8965 6427 c-97 -47 -135 -112 -135 -229 0 -86 23 -144 78 -201 88
-92 202 -115 301 -62 81 44 121 117 121 219 0 152 -111 278 -256 292 -49 4
-67 1 -109 -19z m164 -117 c67 -33 104 -117 82 -182 -18 -54 -61 -89 -117 -96
-60 -6 -101 14 -138 71 -24 37 -27 50 -23 101 3 55 7 62 42 93 46 39 95 44
154 13z"/>
<path d="M9420 6010 c6 -11 185 -287 397 -613 212 -326 388 -598 390 -604 3
-7 -22 -40 -55 -72 -60 -58 -157 -115 -217 -126 -30 -6 -31 -5 -425 601 -217
333 -398 611 -402 617 -4 6 -10 8 -14 4 -5 -4 1 -22 11 -40 19 -31 286 -443
647 -996 98 -150 177 -274 176 -275 -2 -1 -123 -80 -270 -176 -230 -148 -288
-190 -263 -190 2 0 107 67 232 148 332 217 314 206 324 190 5 -7 9 -25 9 -39
0 -22 -12 -34 -67 -69 -172 -107 -443 -286 -443 -292 0 -5 4 -8 8 -8 5 0 110
66 233 146 123 81 236 154 251 163 40 24 43 90 6 148 -25 39 -26 44 -10 49
100 33 173 75 237 139 l52 53 32 -52 c17 -29 31 -62 31 -75 0 -52 -180 -181
-254 -181 -29 -1 -30 -2 -12 -15 10 -8 49 -24 85 -36 57 -19 76 -32 141 -98
41 -42 119 -142 174 -221 121 -178 258 -362 264 -356 2 3 -37 76 -88 163 -308
523 -302 509 -299 667 2 61 -1 121 -4 132 -7 20 20 40 267 200 252 164 294
194 267 194 -5 0 -127 -77 -271 -171 -144 -93 -267 -172 -275 -175 -8 -3 -19
5 -26 18 -7 13 -74 118 -149 233 -76 116 -258 395 -404 620 -147 226 -274 412
-282 413 -13 3 -14 0 -4 -18z"/>
<path d="M10159 5469 c-24 -47 -19 -84 12 -92 11 -3 75 5 142 18 67 13 159 29
205 35 45 7 85 16 88 21 3 5 1 9 -4 9 -23 0 -229 -32 -320 -50 -57 -11 -108
-18 -113 -14 -15 9 -10 37 11 69 22 33 25 45 10 45 -5 0 -19 -19 -31 -41z"/>
<path d="M10617 4846 c-136 -90 -255 -170 -265 -179 -42 -43 23 -7 210 116
112 73 229 149 260 168 32 19 58 40 58 47 0 6 -3 12 -7 11 -5 0 -120 -74 -256
-163z"/>
<path d="M9260 4901 c0 -5 17 -7 40 -4 46 6 74 -10 64 -39 -5 -16 -42 -74
-185 -290 -21 -32 -34 -60 -30 -63 5 -2 59 73 120 167 89 138 111 179 109 203
-3 29 -5 30 -60 33 -32 2 -58 -1 -58 -7z"/>
</g>
</svg>
